<?xml version="1.0" standalone="no"?>
<!DOCTYPE
    svg
    PUBLIC "-//W3C//DTD SVG 1.1//EN" "http://www.w3.org/Graphics/SVG/1.1/DTD/svg11.dtd"
><svg
    class="icon"
    width="200px"
    height="200.00px"
    viewBox="0 0 1024 1024"
    version="1.1"
    xmlns="http://www.w3.org/2000/svg"
>
    <path
        d="M655.54431073 120.1012469c-138.4177282 0-251.20254378 112.78481557-251.20254378 251.20254378 0 16.51898815 1.70886084 33.03797627 5.12658253 49.55696442l2.27848111 11.96202589-295.06330537 295.06330538v176.58228702h206.20254159v-102.53165053h96.26582744V705.67089542h95.12658687v-96.8354477h32.468356v-9.1139245l29.6202546 9.68354477c25.06329235 8.54430421 51.83544554 12.53164617 78.03797845 12.53164617 138.4177282 0 251.20254378-112.78481557 251.20254377-251.20254377 1.13924057-137.84810792-111.64557501-250.6329235-250.06330321-250.63292349z m93.98734631 210.18988357c0 29.05063432-23.92405179 52.9746861-52.97468611 52.97468611s-52.9746861-23.92405179-52.9746861-52.97468611 23.92405179-52.9746861 52.9746861-52.9746861 52.9746861 23.35443151 52.97468611 52.9746861z"
        fill="#707070"
    />
</svg>